<svg xmlns="http://www.w3.org/2000/svg" xmlns:xlink="http://www.w3.org/1999/xlink" viewBox="0 0 563.69 539"><defs><style>.cls-1{isolation:isolate;}.cls-2{fill:url(#linear-gradient);}.cls-3{fill:url(#linear-gradient-2);}.cls-4{fill:url(#linear-gradient-3);}.cls-5{fill:url(#linear-gradient-4);}.cls-6,.cls-7{mix-blend-mode:multiply;}.cls-6{fill:url(#linear-gradient-5);}.cls-7{fill:url(#linear-gradient-6);}.cls-12,.cls-13,.cls-14,.cls-8{font-size:99.22px;font-family:Raleway-ExtraBoldItalic, Raleway;font-weight:800;}.cls-12,.cls-8{fill:#071489;}.cls-12,.cls-13,.cls-14,.cls-18,.cls-23,.cls-8{font-style:italic;}.cls-9{letter-spacing:-0.01em;}.cls-10{letter-spacing:0em;}.cls-11{letter-spacing:-0.03em;}.cls-12,.cls-14{letter-spacing:-0.02em;}.cls-13,.cls-14,.cls-21{fill:#fefefe;}.cls-15{fill:url(#linear-gradient-7);}.cls-16{fill:url(#Безымянный_градиент_19);}.cls-17{fill:url(#Безымянный_градиент_19-2);}.cls-18{font-size:27.6px;}.cls-18,.cls-20,.cls-23{fill:#fff;}.cls-18,.cls-23{font-family:Raleway-BoldItalic, Raleway;font-weight:700;}.cls-19{letter-spacing:-0.02em;}.cls-22{fill:url(#linear-gradient-8);}.cls-23{font-size:37.31px;}.cls-24{letter-spacing:-0.03em;}.cls-25{letter-spacing:-0.03em;}.cls-26{letter-spacing:-0.01em;}.cls-27{letter-spacing:-0.02em;}</style><linearGradient id="linear-gradient" x1="1579.67" y1="-1154.95" x2="1702.79" y2="-943.51" gradientTransform="matrix(0.98, -0.21, 0.21, 0.98, -1119.66, 1546.2)" gradientUnits="userSpaceOnUse"><stop offset="0" stop-color="#a4009e"/><stop offset="0.44" stop-color="#43115d"/></linearGradient><linearGradient id="linear-gradient-2" x1="216.76" y1="560.54" x2="134.39" y2="499.52" gradientTransform="matrix(1, 0, 0, 1, 0, 0)" xlink:href="#linear-gradient"/><linearGradient id="linear-gradient-3" x1="151.45" y1="9.36" x2="125.17" y2="93.2" gradientUnits="userSpaceOnUse"><stop offset="0.39" stop-color="#a4009e"/><stop offset="0.81" stop-color="#43115d"/></linearGradient><linearGradient id="linear-gradient-4" x1="253.16" y1="466.69" x2="311.7" y2="42.27" gradientUnits="userSpaceOnUse"><stop offset="0" stop-color="#089ded"/><stop offset="0.55" stop-color="#3150c2"/><stop offset="1" stop-color="#52119f"/></linearGradient><linearGradient id="linear-gradient-5" x1="237.7" y1="371.25" x2="318.66" y2="510.3" gradientUnits="userSpaceOnUse"><stop offset="0" stop-color="#df00d7"/><stop offset="0.44" stop-color="#6e1c98"/></linearGradient><linearGradient id="linear-gradient-6" x1="168.57" y1="89.44" x2="250.74" y2="230.56" xlink:href="#linear-gradient-5"/><linearGradient id="linear-gradient-7" x1="11323.97" y1="-1203.38" x2="11437.08" y2="-1009.13" gradientTransform="matrix(-0.96, 0.28, 0.28, 0.96, 11466.53, -1616.54)" xlink:href="#linear-gradient-5"/><linearGradient id="Безымянный_градиент_19" x1="87.41" y1="247.28" x2="25.62" y2="316.8" gradientUnits="userSpaceOnUse"><stop offset="0" stop-color="#df00d7"/><stop offset="1" stop-color="#fbe24a"/></linearGradient><linearGradient id="Безымянный_градиент_19-2" x1="13219.63" y1="12158.53" x2="13122.05" y2="12268.31" gradientTransform="translate(13677.21 12445.86) rotate(180)" xlink:href="#Безымянный_градиент_19"/><linearGradient id="linear-gradient-8" x1="1578.76" y1="-1179.97" x2="1702.86" y2="-966.84" gradientTransform="matrix(0.98, -0.21, 0.21, 0.98, -1119.66, 1546.2)" xlink:href="#linear-gradient-5"/></defs><g class="cls-1"><g id="Capa_2" data-name="Capa 2"><g id="Capa_1-2" data-name="Capa 1"><polygon class="cls-2" points="377.14 170.5 106.38 239.25 121.42 101.75 416.25 104.5 377.14 170.5"/><polygon class="cls-3" points="265.82 539 195.13 503.25 92.84 526.63 265.82 539"/><polygon class="cls-4" points="144.88 139.31 85.32 111.38 174.07 0 144.88 139.31"/><path class="cls-5" d="M524.46,293.66c-45.05,27.62-83.77,48.17-116.82,74.78q-6,4.77-11.81,9.81c-27.52,24-50.82,52.66-70.35,86.56-.19.34-.4.7-.6,1-21.75,39-45.47,50.38-70.79,32.74a169.8,169.8,0,0,0-20.83-13q-5.89-3.15-12.14-6.14c-27.27-12.28-59.9-26.16-93.55-48.62q-7.65-5-15.35-10.52c-28.77-20.64-57.84-46.7-84.95-73.84-14-13.56-22.5-28.45-25.7-43.44-4.79-21.93,1.65-46.22,15.7-64,14.59-18.39,29-37.56,43.28-56.87,24.8-33.48,49.3-67.33,74.14-98.21,7.37-9.15,14.75-18,22.2-26.58,14.46-18.65,42.82-16.6,74.38-2.85,16.64,7.22,34.15,17.7,51,30.12q7.67,5.68,15.54,11.06a536.54,536.54,0,0,0,55.62,32.92c36.29,18.58,75.14,32.89,111.89,38.17,56.34,10.58,92.34,3.7,98.36,64.2C564,234.09,562.56,272.59,524.46,293.66Z"/><path class="cls-6" d="M395.83,378.25c-27.52,24-50.82,52.66-70.35,86.56l-92.22,20.81q-5.89-3.15-12.14-6.14c-27.27-12.28-59.9-26.16-93.55-48.62q-7.65-5-15.35-10.52l.18-1Z"/><path class="cls-7" d="M353.41,128.63,60.55,182.17c24.8-33.48,49.3-67.33,74.14-98.21l96.58-29.43c16.64,7.22,34.15,17.7,51,30.12q7.67,5.68,15.54,11.06A536.54,536.54,0,0,0,353.41,128.63Z"/><text class="cls-8" transform="matrix(1.08, -0.16, 0.18, 0.98, 145.59, 279.19)">M<tspan class="cls-9" x="81.86" y="0">E</tspan><tspan class="cls-10" x="137.92" y="0">G</tspan><tspan class="cls-11" x="207.77" y="0">A</tspan></text><text class="cls-12" transform="matrix(1.08, -0.16, 0.18, 0.98, 164.91, 385.67)">S<tspan class="cls-10" x="57.15" y="0">ALE</tspan></text><text class="cls-13" transform="matrix(1.08, -0.16, 0.18, 0.98, 128.17, 271.38)">M<tspan class="cls-9" x="81.86" y="0">E</tspan><tspan class="cls-10" x="137.92" y="0">G</tspan><tspan class="cls-11" x="207.77" y="0">A</tspan></text><text class="cls-14" transform="matrix(1.08, -0.16, 0.18, 0.98, 147.49, 377.86)">S<tspan class="cls-10" x="57.15" y="0">ALE</tspan></text><polygon class="cls-15" points="94.35 528 350.06 470.25 383.15 389.13 122.92 423.5 94.35 528"/><path class="cls-16" d="M90.17,282.94c0,17.39-15.43,31.49-34.45,31.49s-34.45-14.1-34.45-31.49,15.42-31.49,34.45-31.49S90.17,265.55,90.17,282.94Z"/><path class="cls-17" d="M453.23,231c0-27.47,24.36-49.73,54.4-49.73S562,203.55,562,231s-24.35,49.73-54.4,49.73S453.23,258.48,453.23,231Z"/><text class="cls-18" transform="matrix(1.07, -0.19, 0.21, 0.98, 154.19, 475.97)">BES<tspan class="cls-19" x="50.4" y="0">T</tspan><tspan x="66.05" y="0" xml:space="preserve"> OFFER</tspan></text><ellipse class="cls-20" cx="334.52" cy="431.29" rx="4.14" ry="3.78"/><ellipse class="cls-20" cx="134.08" cy="471.63" rx="4.14" ry="3.78"/><polygon class="cls-21" points="458.51 326.68 448.71 335.63 422.12 311.32 431.92 302.37 458.51 326.68"/><polygon class="cls-21" points="448.71 302.37 458.51 311.32 431.92 335.63 422.12 326.68 448.71 302.37"/><polygon class="cls-21" points="103.3 216.8 96.86 222.69 79.37 206.7 85.81 200.81 103.3 216.8"/><polygon class="cls-21" points="96.86 200.81 103.3 206.7 85.81 222.69 79.37 216.8 96.86 200.81"/><path class="cls-20" d="M553,238.72c-5.8,0-8.8-2.92-11.21-5.27-2.15-2.1-3.84-3.75-7.28-3.75s-5.14,1.65-7.29,3.75c-2.41,2.35-5.41,5.27-11.21,5.27s-8.81-2.92-11.21-5.27c-2.15-2.1-3.85-3.75-7.29-3.75s-5.13,1.65-7.28,3.75c-2.41,2.35-5.41,5.27-11.21,5.27s-8.8-2.92-11.21-5.27c-2.15-2.1-3.84-3.75-7.29-3.75a2.28,2.28,0,1,1,0-4.51c5.81,0,8.81,2.92,11.22,5.27,2.14,2.1,3.84,3.75,7.28,3.75s5.14-1.65,7.28-3.75c2.41-2.35,5.41-5.27,11.21-5.27s8.81,2.92,11.21,5.27c2.15,2.1,3.85,3.75,7.29,3.75s5.14-1.65,7.28-3.75c2.41-2.35,5.41-5.27,11.22-5.27s8.8,2.92,11.21,5.27c2.15,2.1,3.84,3.75,7.28,3.75a2.28,2.28,0,1,1,0,4.51Z"/><path class="cls-20" d="M102,361.75c-6.16,0-9.35-3.29-11.9-5.94-2.28-2.36-4.08-4.23-7.74-4.23s-5.45,1.87-7.73,4.23c-2.56,2.65-5.74,5.94-11.9,5.94s-9.35-3.29-11.91-5.94c-2.28-2.36-4.07-4.23-7.73-4.23s-5.45,1.87-7.73,4.23c-2.56,2.65-5.74,5.94-11.9,5.94s-9.35-3.29-11.9-5.94c-2.28-2.36-4.08-4.23-7.73-4.23a2.55,2.55,0,1,1,0-5.08c6.16,0,9.34,3.29,11.9,5.94,2.28,2.36,4.08,4.23,7.73,4.23s5.45-1.87,7.73-4.23c2.56-2.65,5.74-5.94,11.9-5.94s9.35,3.29,11.9,5.94c2.28,2.36,4.08,4.23,7.74,4.23s5.45-1.87,7.73-4.23c2.56-2.65,5.74-5.94,11.9-5.94s9.35,3.29,11.9,5.94c2.28,2.36,4.09,4.23,7.74,4.23a2.55,2.55,0,1,1,0,5.08Z"/><polygon class="cls-22" points="416.25 107.25 34.18 170.5 107.88 83.88 368.11 5.5 416.25 107.25"/><text class="cls-23" transform="matrix(1.06, -0.23, 0.25, 0.97, 137.28, 131.19)">U<tspan class="cls-24" x="26.87" y="0">P</tspan><tspan class="cls-25" x="48.28" y="0"> </tspan><tspan class="cls-26" x="56.01" y="0">T</tspan><tspan x="77.76" y="0">O </tspan><tspan class="cls-27" x="113.77" y="0">7</tspan><tspan x="133.47" y="0">5%</tspan></text></g></g></g></svg>