<svg xmlns="http://www.w3.org/2000/svg" xmlns:xlink="http://www.w3.org/1999/xlink" viewBox="0 0 478.78 179.25"><defs><style>.cls-1,.cls-10,.cls-11,.cls-12,.cls-13,.cls-14,.cls-15,.cls-16,.cls-17,.cls-18,.cls-19,.cls-2,.cls-20,.cls-21,.cls-22,.cls-23,.cls-24,.cls-25,.cls-26,.cls-27,.cls-28,.cls-29,.cls-3,.cls-30,.cls-31,.cls-32,.cls-4,.cls-5,.cls-6,.cls-7,.cls-8,.cls-9{stroke:#000;stroke-miterlimit:10;}.cls-1{fill:url(#Degradado_sin_nombre_64);}.cls-2{fill:url(#Degradado_sin_nombre_80);}.cls-3{fill:url(#Degradado_sin_nombre_80-2);}.cls-4{fill:url(#Degradado_sin_nombre_80-3);}.cls-5{fill:url(#Degradado_sin_nombre_80-4);}.cls-6{fill:url(#Degradado_sin_nombre_80-5);}.cls-10,.cls-11,.cls-12,.cls-13,.cls-14,.cls-15,.cls-16,.cls-17,.cls-18,.cls-19,.cls-20,.cls-21,.cls-22,.cls-23,.cls-24,.cls-25,.cls-26,.cls-27,.cls-28,.cls-29,.cls-30,.cls-31,.cls-32,.cls-7,.cls-8,.cls-9{stroke-width:0.5px;}.cls-7{fill:url(#Nueva_muestra_de_degradado_1);}.cls-8{fill:url(#Nueva_muestra_de_degradado_1-2);}.cls-9{fill:url(#Nueva_muestra_de_degradado_1-3);}.cls-10{fill:url(#Nueva_muestra_de_degradado_1-4);}.cls-11{fill:url(#Nueva_muestra_de_degradado_1-5);}.cls-12{fill:url(#Nueva_muestra_de_degradado_1-6);}.cls-13{fill:url(#Nueva_muestra_de_degradado_1-7);}.cls-14{fill:url(#Nueva_muestra_de_degradado_1-8);}.cls-15{fill:url(#Nueva_muestra_de_degradado_1-9);}.cls-16{fill:url(#Nueva_muestra_de_degradado_1-10);}.cls-17{fill:url(#Nueva_muestra_de_degradado_1-11);}.cls-18{fill:url(#Nueva_muestra_de_degradado_1-12);}.cls-19{fill:url(#Nueva_muestra_de_degradado_1-13);}.cls-20{fill:url(#Nueva_muestra_de_degradado_1-14);}.cls-21{fill:url(#Nueva_muestra_de_degradado_1-15);}.cls-22{fill:url(#Nueva_muestra_de_degradado_1-16);}.cls-23{fill:url(#Nueva_muestra_de_degradado_1-17);}.cls-24{fill:url(#Nueva_muestra_de_degradado_1-18);}.cls-25{fill:url(#Nueva_muestra_de_degradado_1-19);}.cls-26{fill:url(#Nueva_muestra_de_degradado_1-20);}.cls-27{fill:url(#Nueva_muestra_de_degradado_1-21);}.cls-28{fill:url(#Nueva_muestra_de_degradado_1-22);}.cls-29{fill:url(#Nueva_muestra_de_degradado_1-23);}.cls-30{fill:url(#Nueva_muestra_de_degradado_1-24);}.cls-31{fill:url(#Nueva_muestra_de_degradado_1-25);}.cls-32{fill:url(#Nueva_muestra_de_degradado_1-26);}</style><linearGradient id="Degradado_sin_nombre_64" x1="0.65" y1="89.62" x2="478.28" y2="89.62" gradientUnits="userSpaceOnUse"><stop offset="0.01" stop-color="#b47a1a"/><stop offset="0.27" stop-color="#ffe55a"/><stop offset="0.53" stop-color="#ffec88"/><stop offset="0.73" stop-color="#ffec88"/><stop offset="0.96" stop-color="#c18d25"/></linearGradient><linearGradient id="Degradado_sin_nombre_80" x1="105.58" y1="48.46" x2="160.72" y2="48.46" gradientUnits="userSpaceOnUse"><stop offset="0" stop-color="#b47a1a"/><stop offset="0.25" stop-color="#ffe55a"/><stop offset="0.53" stop-color="#ffec88"/><stop offset="0.75" stop-color="#ffec88"/><stop offset="0.93" stop-color="#b47a1a"/></linearGradient><linearGradient id="Degradado_sin_nombre_80-2" x1="171.99" y1="48.1" x2="231.56" y2="48.1" xlink:href="#Degradado_sin_nombre_80"/><linearGradient id="Degradado_sin_nombre_80-3" x1="244.76" y1="48.1" x2="320.41" y2="48.1" xlink:href="#Degradado_sin_nombre_80"/><linearGradient id="Degradado_sin_nombre_80-4" x1="328.16" y1="48.1" x2="406.75" y2="48.1" xlink:href="#Degradado_sin_nombre_80"/><linearGradient id="Degradado_sin_nombre_80-5" x1="415.3" y1="48.1" x2="477.44" y2="48.1" xlink:href="#Degradado_sin_nombre_80"/><linearGradient id="Nueva_muestra_de_degradado_1" x1="119.68" y1="152.82" x2="121.81" y2="152.82" gradientUnits="userSpaceOnUse"><stop offset="0" stop-color="#b47a1a"/><stop offset="0.14" stop-color="#ffe55a"/><stop offset="0.28" stop-color="#ffec88"/><stop offset="0.42" stop-color="#ffec88"/></linearGradient><linearGradient id="Nueva_muestra_de_degradado_1-2" x1="125.53" y1="152.82" x2="137.92" y2="152.82" xlink:href="#Nueva_muestra_de_degradado_1"/><linearGradient id="Nueva_muestra_de_degradado_1-3" x1="141.65" y1="152.82" x2="154.04" y2="152.82" xlink:href="#Nueva_muestra_de_degradado_1"/><linearGradient id="Nueva_muestra_de_degradado_1-4" x1="156.79" y1="152.82" x2="171.88" y2="152.82" xlink:href="#Nueva_muestra_de_degradado_1"/><linearGradient id="Nueva_muestra_de_degradado_1-5" x1="172.88" y1="152.82" x2="186.52" y2="152.82" xlink:href="#Nueva_muestra_de_degradado_1"/><linearGradient id="Nueva_muestra_de_degradado_1-6" x1="185.67" y1="152.82" x2="199.48" y2="152.82" xlink:href="#Nueva_muestra_de_degradado_1"/><linearGradient id="Nueva_muestra_de_degradado_1-7" x1="198.14" y1="152.82" x2="210.36" y2="152.82" xlink:href="#Nueva_muestra_de_degradado_1"/><linearGradient id="Nueva_muestra_de_degradado_1-8" x1="212.2" y1="152.82" x2="214.33" y2="152.82" xlink:href="#Nueva_muestra_de_degradado_1"/><linearGradient id="Nueva_muestra_de_degradado_1-9" x1="217.07" y1="152.82" x2="232.16" y2="152.82" xlink:href="#Nueva_muestra_de_degradado_1"/><linearGradient id="Nueva_muestra_de_degradado_1-10" x1="234.93" y1="152.82" x2="247.32" y2="152.82" xlink:href="#Nueva_muestra_de_degradado_1"/><linearGradient id="Nueva_muestra_de_degradado_1-11" x1="255.14" y1="152.82" x2="269.12" y2="152.82" xlink:href="#Nueva_muestra_de_degradado_1"/><linearGradient id="Nueva_muestra_de_degradado_1-12" x1="273.37" y1="152.82" x2="285.59" y2="152.82" xlink:href="#Nueva_muestra_de_degradado_1"/><linearGradient id="Nueva_muestra_de_degradado_1-13" x1="287.43" y1="152.82" x2="296.71" y2="152.82" xlink:href="#Nueva_muestra_de_degradado_1"/><linearGradient id="Nueva_muestra_de_degradado_1-14" x1="298.5" y1="152.79" x2="311.04" y2="152.79" xlink:href="#Nueva_muestra_de_degradado_1"/><linearGradient id="Nueva_muestra_de_degradado_1-15" x1="313.69" y1="152.82" x2="325.96" y2="152.82" xlink:href="#Nueva_muestra_de_degradado_1"/><linearGradient id="Nueva_muestra_de_degradado_1-16" x1="329.66" y1="152.82" x2="342.05" y2="152.82" xlink:href="#Nueva_muestra_de_degradado_1"/><linearGradient id="Nueva_muestra_de_degradado_1-17" x1="344.8" y1="152.82" x2="359.88" y2="152.82" xlink:href="#Nueva_muestra_de_degradado_1"/><linearGradient id="Nueva_muestra_de_degradado_1-18" x1="362.65" y1="152.82" x2="371.84" y2="152.82" xlink:href="#Nueva_muestra_de_degradado_1"/><linearGradient id="Nueva_muestra_de_degradado_1-19" x1="372.28" y1="152.82" x2="387.37" y2="152.82" xlink:href="#Nueva_muestra_de_degradado_1"/><linearGradient id="Nueva_muestra_de_degradado_1-20" x1="389.16" y1="152.82" x2="402.7" y2="152.82" xlink:href="#Nueva_muestra_de_degradado_1"/><linearGradient id="Nueva_muestra_de_degradado_1-21" x1="404.42" y1="152.82" x2="417.33" y2="152.82" xlink:href="#Nueva_muestra_de_degradado_1"/><linearGradient id="Nueva_muestra_de_degradado_1-22" x1="423.57" y1="152.79" x2="433.57" y2="152.79" xlink:href="#Nueva_muestra_de_degradado_1"/><linearGradient id="Nueva_muestra_de_degradado_1-23" x1="435.9" y1="170.94" x2="438.81" y2="170.94" xlink:href="#Nueva_muestra_de_degradado_1"/><linearGradient id="Nueva_muestra_de_degradado_1-24" x1="440.31" y1="152.82" x2="454.12" y2="152.82" xlink:href="#Nueva_muestra_de_degradado_1"/><linearGradient id="Nueva_muestra_de_degradado_1-25" x1="455.96" y1="170.94" x2="458.87" y2="170.94" xlink:href="#Nueva_muestra_de_degradado_1"/><linearGradient id="Nueva_muestra_de_degradado_1-26" x1="460.78" y1="152.79" x2="470.78" y2="152.79" xlink:href="#Nueva_muestra_de_degradado_1"/></defs><g id="Capa_2" data-name="Capa 2"><g id="Capa_1-2" data-name="Capa 1"><path class="cls-1" d="M478.28,106.84,95.74,103.4,69.05.5H47L.65,178.75l20.17-.13,13.42-55.41,47,.2,14.08,55.34,20.1-.13-14.64-55.34,377.47,3.87Zm-440-3.44L57.77,22.22,77.28,103.4Z"/><path class="cls-2" d="M105.58,91V5.92h15.81V76.54h39.33V91Z"/><path class="cls-3" d="M172,91V5.22h58.08V19.73H187.81v19h39.32V53.19H187.81V76.54h43.75V91Z"/><path class="cls-4" d="M244.76,91V5.22h23.67l14.21,58.5,14.05-58.5h23.72V91H305.72V23.47L290.17,91H275l-15.5-67.52V91Z"/><path class="cls-5" d="M406.75,91h-17.2l-6.84-19.48H351.4L344.94,91H328.16L358.67,5.22h16.72ZM377.64,57.06l-10.8-31.83L356.26,57.06Z"/><path class="cls-6" d="M415.3,91V5.22h15.39L462.75,62.5V5.22h14.69V91H461.57L430,35.06V91Z"/><path class="cls-7" d="M121.81,131.4v42.85h-2.13V131.4Z"/><path class="cls-8" d="M125.53,174.25V131.4h2.33l5.29,21.68c1.22,5,2.18,9.53,3,13.92l0-.06c-.2-5.73-.24-10.94-.24-17.61V131.4h2v42.85h-2.15l-5.24-21.75c-1.15-4.76-2.26-9.66-3.09-14.3l-.07.06c.12,5.41.17,10.56.17,17.68v18.31Z"/><path class="cls-9" d="M141.65,174.25V131.4H144l5.29,21.68c1.22,5,2.18,9.53,3,13.92l.05-.06c-.2-5.73-.25-10.94-.25-17.61V131.4h2v42.85h-2.15l-5.24-21.75c-1.16-4.76-2.26-9.66-3.09-14.3l-.07.06c.12,5.41.17,10.56.17,17.68v18.31Z"/><path class="cls-10" d="M171.88,152.38c0,14.75-3.46,22.57-7.67,22.57-4.36,0-7.42-8.78-7.42-21.75,0-13.6,3.26-22.5,7.66-22.5S171.88,139.66,171.88,152.38Zm-12.81.7c0,9.15,1.91,17.35,5.26,17.35s5.29-8.07,5.29-17.8c0-8.52-1.71-17.42-5.26-17.42S159.07,143.67,159.07,153.08Z"/><path class="cls-11" d="M178.27,174.25l-5.39-42.85h2.3l2.58,21.1c.71,5.79,1.32,11,1.76,16h0c.46-5,1.15-10.37,1.88-16l2.8-21.17h2.27l-5.9,42.85Z"/><path class="cls-12" d="M189.59,160.77l-1.72,13.48h-2.2l5.61-42.85h2.57l5.63,42.85H197.2l-1.76-13.48Zm5.41-4.32-1.62-12.34c-.36-2.8-.61-5.34-.85-7.82h-.05c-.25,2.54-.52,5.15-.83,7.76L190,156.45Z"/><path class="cls-13" d="M203.16,136.1h-5v-4.7h12.22v4.7h-5.05v38.15h-2.15Z"/><path class="cls-14" d="M214.33,131.4v42.85H212.2V131.4Z"/><path class="cls-15" d="M232.16,152.38c0,14.75-3.45,22.57-7.67,22.57s-7.42-8.78-7.42-21.75c0-13.6,3.26-22.5,7.67-22.5S232.16,139.66,232.16,152.38Zm-12.81.7c0,9.15,1.91,17.35,5.27,17.35s5.29-8.07,5.29-17.8c0-8.52-1.72-17.42-5.27-17.42S219.35,143.67,219.35,153.08Z"/><path class="cls-16" d="M234.93,174.25V131.4h2.33l5.29,21.68c1.22,5,2.18,9.53,3,13.92l.05-.06c-.2-5.73-.24-10.94-.24-17.61V131.4h2v42.85h-2.15l-5.24-21.75c-1.15-4.76-2.26-9.66-3.09-14.3l-.07.06c.12,5.41.17,10.56.17,17.68v18.31Z"/><path class="cls-17" d="M266.58,174.25c-.47-1.21-.91-2.42-1.55-4.2-1.42,3.44-3,4.9-4.82,4.9-3.21,0-5.07-5.6-5.07-12,0-5.85,1.35-9.85,3.23-12.52v-.19a31.42,31.42,0,0,1-1.37-9c0-5.21,1.45-10.55,4.19-10.55,2.06,0,3.65,3.56,3.65,9.09a17.42,17.42,0,0,1-3.63,11.44v.19c1.4,4.2,3,8.9,4,12a70.5,70.5,0,0,0,1.59-12.53h2c-.44,6.74-1.15,12.08-2.37,15.83.88,2.42,1.74,4.83,2.71,7.57Zm-2.6-7.38c-1-2.79-2.82-8-4.65-13.48a16.43,16.43,0,0,0-2.13,8.71c0,4.9,1.39,8.65,3.38,8.65C262,170.75,263.2,169.1,264,166.87Zm-5-26.13a24.72,24.72,0,0,0,1.25,7.7A13.72,13.72,0,0,0,263,140c0-2.6-.56-5.53-1.91-5.53S259,137.44,259,140.74Z"/><path class="cls-18" d="M278.39,136.1h-5v-4.7h12.22v4.7h-5v38.15h-2.15Z"/><path class="cls-19" d="M296,154.16h-6.41v15.45h7.15v4.64h-9.28V131.4h8.91V136h-6.78v13.54H296Z"/><path class="cls-20" d="M311,172.85a5.56,5.56,0,0,1-4.36,2c-4.65,0-8.15-7.63-8.15-21.68,0-13.41,3.5-22.5,8.62-22.5a4.86,4.86,0,0,1,3.92,1.9l-.52,4.52a4.3,4.3,0,0,0-3.33-1.78c-3.87,0-6.44,6.42-6.44,17.67,0,10.49,2.33,17.23,6.34,17.23a4.6,4.6,0,0,0,3.48-1.78Z"/><path class="cls-21" d="M315.82,131.4v17.93h8V131.4H326v42.85H323.8V154.16h-8v20.09h-2.13V131.4Z"/><path class="cls-22" d="M329.66,174.25V131.4H332l5.29,21.68c1.23,5,2.18,9.53,3,13.92l.05-.06c-.2-5.73-.25-10.94-.25-17.61V131.4h2v42.85h-2.16l-5.24-21.75c-1.15-4.76-2.25-9.66-3.08-14.3l-.08.06c.13,5.41.17,10.56.17,17.68v18.31Z"/><path class="cls-23" d="M359.88,152.38c0,14.75-3.45,22.57-7.66,22.57-4.36,0-7.42-8.78-7.42-21.75,0-13.6,3.25-22.5,7.66-22.5S359.88,139.66,359.88,152.38Zm-12.81.7c0,9.15,1.91,17.35,5.27,17.35s5.29-8.07,5.29-17.8c0-8.52-1.72-17.42-5.27-17.42S347.07,143.67,347.07,153.08Z"/><path class="cls-24" d="M362.65,131.4h2.13v38.21h7.06v4.64h-9.19Z"/><path class="cls-25" d="M387.37,152.38c0,14.75-3.46,22.57-7.67,22.57s-7.42-8.78-7.42-21.75c0-13.6,3.26-22.5,7.67-22.5S387.37,139.66,387.37,152.38Zm-12.81.7c0,9.15,1.91,17.35,5.26,17.35s5.29-8.07,5.29-17.8c0-8.52-1.71-17.42-5.26-17.42S374.56,143.67,374.56,153.08Z"/><path class="cls-26" d="M402.7,172.34a7.91,7.91,0,0,1-5.07,2.35c-2.5,0-4.55-1.65-6.17-5.66-1.42-3.56-2.3-9.28-2.3-15.95,0-12.78,3.4-22.13,8.94-22.13a5.43,5.43,0,0,1,4.11,2l-.51,4.52a4.65,4.65,0,0,0-3.65-1.85c-4,0-6.64,6.49-6.64,17.23s2.52,17.3,6.37,17.3a3.46,3.46,0,0,0,2.84-1.15V156.19h-3.36v-4.45h5.44Z"/><path class="cls-27" d="M409.64,174.25V156.06l-5.22-24.66h2.42l2.33,11.82c.64,3.24,1.13,5.85,1.64,8.84h.05c.47-2.8,1-5.6,1.67-8.84l2.37-11.82h2.43L411.79,156v18.25Z"/><path class="cls-28" d="M424.11,167.51c1,1.52,2.35,2.8,3.82,2.8,2.18,0,3.46-3,3.46-7.32,0-4-.88-6.29-3.11-8.51-2.7-2.48-4.36-6.11-4.36-12.15,0-6.67,2.13-11.63,5.34-11.63a4.44,4.44,0,0,1,3.65,2.09l-.59,4.52a4.22,4.22,0,0,0-3.14-2c-2.25,0-3.11,3.5-3.11,6.43,0,4,1,6,3.28,8.26,2.8,2.8,4.22,6.3,4.22,12.59,0,6.61-1.89,12.33-5.78,12.33a5.36,5.36,0,0,1-4.22-2.73Z"/><path class="cls-29" d="M435.9,170.94c0-2.35.61-4,1.47-4s1.44,1.65,1.44,4-.56,4-1.47,4S435.9,173.23,435.9,170.94Z"/><path class="cls-30" d="M444.22,160.77l-1.71,13.48h-2.2l5.6-42.85h2.58l5.63,42.85h-2.28l-1.76-13.48Zm5.42-4.32L448,144.11c-.37-2.8-.61-5.34-.86-7.82h-.05c-.24,2.54-.51,5.15-.83,7.76l-1.61,12.4Z"/><path class="cls-31" d="M456,170.94c0-2.35.61-4,1.47-4s1.44,1.65,1.44,4-.56,4-1.47,4S456,173.23,456,170.94Z"/><path class="cls-32" d="M461.32,167.51c1,1.52,2.35,2.8,3.82,2.8,2.18,0,3.46-3,3.46-7.32,0-4-.89-6.29-3.11-8.51-2.7-2.48-4.36-6.11-4.36-12.15,0-6.67,2.13-11.63,5.34-11.63a4.44,4.44,0,0,1,3.65,2.09l-.59,4.52a4.22,4.22,0,0,0-3.14-2c-2.25,0-3.11,3.5-3.11,6.43,0,4,1,6,3.28,8.26,2.8,2.8,4.22,6.3,4.22,12.59,0,6.61-1.89,12.33-5.78,12.33a5.35,5.35,0,0,1-4.22-2.73Z"/></g></g></svg>