<svg xmlns="http://www.w3.org/2000/svg" xmlns:xlink="http://www.w3.org/1999/xlink" viewBox="0 0 45.55 41.1"><defs><style>.cls-1{fill:url(#Nueva_muestra_de_degradado_1);}</style><linearGradient id="Nueva_muestra_de_degradado_1" y1="20.55" x2="45.55" y2="20.55" gradientUnits="userSpaceOnUse"><stop offset="0" stop-color="#b47a1a"/><stop offset="0.14" stop-color="#ffe55a"/><stop offset="0.28" stop-color="#ffec88"/><stop offset="0.42" stop-color="#ffec88"/></linearGradient></defs><g id="Capa_2" data-name="Capa 2"><g id="Capa_1-2" data-name="Capa 1"><path class="cls-1" d="M17.4,0A18.16,18.16,0,0,0,3.82,5.87,14.6,14.6,0,0,0,4,25.7a18.19,18.19,0,0,0,13.47,5.72,18.37,18.37,0,0,0,12.34-4.6,14.71,14.71,0,0,0-.05-22.23A18.36,18.36,0,0,0,17.4,0Zm0,2.44A15.27,15.27,0,0,1,27.74,6.33a12.41,12.41,0,0,1,.05,18.75,15.83,15.83,0,0,1-21.12-.32,12.39,12.39,0,0,1-.5-17.6A15.38,15.38,0,0,1,17.38,2.44Zm.05,2.49A12.3,12.3,0,0,0,9,8.11a10.32,10.32,0,0,0-3.48,7.2A1.28,1.28,0,0,0,6.83,16.6h0a1.35,1.35,0,0,0,1.38-1.2,8,8,0,0,1,2.66-5.55,9.63,9.63,0,0,1,6.47-2.44,1.27,1.27,0,0,0,1.29-1.7A1.3,1.3,0,0,0,17.43,4.93Zm-8,15.6a1.25,1.25,0,1,0,0,2.48,1.25,1.25,0,1,0,0-2.48Zm22.18,6.83a1.31,1.31,0,0,0-.94.37,1.12,1.12,0,0,0,0,1.74l1.14,1a3.36,3.36,0,0,0-.41,1.62,3.56,3.56,0,0,0,1.19,2.65L38.47,40a4.36,4.36,0,0,0,2.94,1.12A4.5,4.5,0,0,0,44.34,40a3.46,3.46,0,0,0,0-5.25l-5.76-5.2a4.48,4.48,0,0,0-4.83-.8l-1.15-1A1.44,1.44,0,0,0,31.62,27.36Zm3.92,3.48a1.31,1.31,0,0,1,1,.37l5.82,5.25a1.12,1.12,0,0,1,0,1.74,1.42,1.42,0,0,1-1.92,0L34.57,33a1.24,1.24,0,0,1-.41-.91,1.1,1.1,0,0,1,.41-.87A1.4,1.4,0,0,1,35.54,30.84Z"/></g></g></svg>